<?xml version="1.0" encoding="UTF-8"?>
<svg id="Calque_2" data-name="Calque 2" xmlns="http://www.w3.org/2000/svg" viewBox="0 0 610.55 288.89">
  <g id="Layer_1" data-name="Layer 1">
    <g>
      <path d="M197.4,190.2c-11.6,0-17.2-6.6-17.2-20.1V83.2h34v-29h-85.7v29h20.8v87.8c0,33.7,11.1,48.1,37.2,48.1,9,0,20.3-1.2,29-7.8v-25.8c-5.9,3-12,4.7-18.1,4.7Z" style="fill: #00aaae;"/>
      <path d="M481.8,133.9c0-60.1-36.3-79.9-77.4-79.9h-38.6V215.7h37.9c40.1,.1,78.1-21.6,78.1-81.8Zm-85.4-52.5h8.2c27.9,0,47,19.9,47,53s-19.1,54-47,54h-8.2V81.4Z" style="fill: #00aaae;"/>
      <rect x="2.3" width="107.1" height="22.8" style="fill: #00aaae;"/>
      <path d="M315.7,148.8c0,25.1-5.5,43.4-26.5,43.4-22.2,0-26.4-18.8-26.4-43.4V54.5h-30.6v95.1c0,56.1,26.2,69.9,57,69.9s57.1-15.5,57.1-69.9V54.5h-30.6v94.3Z" style="fill: #00aaae;"/>
      <path d="M370.2,258.3c0-7.5,14.7-8,14.7-.6h7.8c-.1-.5-.1-1-.2-1.4-1-5.3-4.1-8.9-9.4-10.4-3.7-1.1-7.4-1-11,0-3.7,1-9.7,5.7-9.7,13.1,0,14.9,22.8,6.8,22.5,17.6-.2,6.6-14.6,7.1-14.6-.3h-7.9c.1,.5,.1,1,.2,1.4,1,5.3,4.1,8.9,9.4,10.4,3.7,1.1,7.4,1,11,0,3.7-1,11.2-5.1,9.7-13.7-2.3-13.9-22.5-7.9-22.5-16.1Z" style="fill: #00aaae;"/>
      <path d="M583.5,258.3c0-7.5,14.7-8,14.7-.6h7.8c-.1-.5-.1-1-.2-1.4-1-5.3-4.1-8.9-9.4-10.4-3.7-1.1-7.4-1-11,0-3.7,1-9.7,5.7-9.7,13.1,0,14.9,22.8,6.8,22.5,17.6-.2,6.6-14.6,7.1-14.6-.3h-7.9c.1,.5,.1,1,.2,1.4,1,5.3,4.1,8.9,9.4,10.4,3.7,1.1,7.4,1,11,0,3.7-1,11.2-5.1,9.7-13.7-2.3-13.9-22.5-7.9-22.5-16.1Z" style="fill: #00aaae;"/>
      <path d="M441.1,261.3c0-4.7,1.5-8.7,6.5-9,4.1-.3,7.2,1.3,7.2,5.5h7.8c0-8.3-7.3-12.6-14.6-12.6s-14.9,4.5-14.9,13.4v16.8c0,8.9,7.5,13.4,14.9,13.4s14.6-4.3,14.6-12.6h-7.8c0,4.2-3.1,5.8-7.2,5.5-5-.3-6.5-4.4-6.5-9h0v-11.4h0Z" style="fill: #00aaae;"/>
      <path d="M498.6,267c-.1-5.6-.8-10.3-2.4-13.9-2.3-5.1-6.5-7.9-13.4-7.9-11.7,0-15.7,8.1-15.8,21.8h0c.1,13.7,4.1,21.8,15.8,21.8,6.9,0,11.1-2.9,13.4-7.9,1.6-3.7,2.4-8.4,2.4-13.9h0Zm-7.3,0h0c0,3.7-.4,6.9-1.3,9.3-1.2,3.4-3.5,5.3-7.1,5.3-6.2,0-8.4-5.5-8.4-14.6h0c.1-9.2,2.2-14.6,8.4-14.6,3.7,0,5.9,1.9,7.1,5.3,.9,2.4,1.2,5.6,1.3,9.3h0Z" style="fill: #00aaae;"/>
      <path d="M526.4,271.4c0,7.2-2.1,10.2-7.2,10.2s-7.2-3-7.2-10.2v-25.3h-7.9v28.6c0,11.3,9.6,14.1,15.1,14.1h0c5.5,0,15.1-2.8,15.1-14.1v-28.6h-7.9v25.3h0Z" style="fill: #00aaae;"/>
      <path d="M570.7,259.1c0-8.7-6.4-13-16.5-13h-13.7v41.8h7.9v-15.9h6.2l8,15.9h8.1l-8.9-17.4c5.2-2,8.9-5.6,8.9-11.4Zm-15.6,5.9h-6.7v-11.6h6.1c6.3,0,8.7,2.1,8.7,5.8,0,3.8-2.8,5.8-8.1,5.8Z" style="fill: #00aaae;"/>
      <path d="M552.9,190.6c-20.6-1.4-25.6-19.3-24.5-39,43.2-1.7,86.5-14.7,81.8-57.5-2.7-25-24.1-44-56.8-42.7-34.4,1.3-55.4,29.8-55.4,61.7v53.5c0,33.8,28.4,51,56.7,51.1,27.9,.1,55.6-16.5,55.6-48.1h-29.7c-.2,16-12.1,22.1-27.7,21Zm1.1-111.5c20.5-2,33,14.3,25.2,30-5,9.9-21.2,16.3-51.2,16.3,0-20.4,1-43.9,26-46.3Z" style="fill: #00aaae;"/>
      <path d="M112.2,94.1c-2.7-25-24.1-44-56.8-42.7C21,52.7,0,80.5,0,112.4v54.1c0,33.8,28.4,51,56.7,51.1,27.9,.1,55.6-16.5,55.6-48.1h-29.8c0,16-11.9,22.1-27.6,21-20.6-1.4-25.6-19.3-24.5-39,43.2-1.6,86.5-14.6,81.8-57.4ZM30,125.4c0-20.4,1-43.8,26-46.3,20.5-2,33,14.3,25.2,30-4.9,9.9-21.1,16.3-51.2,16.3Z" style="fill: #00aaae;"/>
      <path d="M427.5,256.3c-.7-6.6-6.3-11.5-14.9-11.2-9,.4-14.5,7.8-14.5,16.2v14c0,8.9,7.5,13.4,14.9,13.4s14.6-4.3,14.6-12.6h-7.8c0,4.2-3.1,5.8-7.2,5.5-5.4-.4-6.7-5.1-6.4-10.2,11.2-.4,22.5-3.8,21.3-15.1Zm-21.5,8.2c0-5.3,.3-11.5,6.8-12.1,5.4-.5,8.7,3.8,6.6,7.9-1.3,2.6-5.6,4.2-13.4,4.2Z" style="fill: #00aaae;"/>
    </g>
  </g>
</svg>